<svg width="569" height="353" viewBox="0 0 569 353" fill="none"
  xmlns="http://www.w3.org/2000/svg">
  <g id="contactIllustration 1">
    <rect width="569" height="353" fill="white"/>
    <g id="illustration">
      <g id="Group 22">
        <g id="MailWindow">
          <path id="Path 561" d="M500.209 22.7307L353.798 120.481C353.24 120.854 352.848 121.437 352.707 122.101C352.566 122.766 352.688 123.458 353.046 124.025L416.834 224.952C417.193 225.519 417.758 225.915 418.406 226.053C419.054 226.191 419.731 226.06 420.289 225.688L566.701 127.937C567.005 127.734 567.263 127.467 567.457 127.153C567.652 126.839 567.777 126.486 567.826 126.119C567.831 126.089 567.834 126.059 567.835 126.03C567.861 125.789 567.852 125.545 567.808 125.308C567.751 124.98 567.631 124.667 567.454 124.389L503.668 23.4642C503.308 22.8968 502.742 22.5007 502.094 22.3632C501.445 22.2256 500.767 22.3578 500.209 22.7307ZM566.854 124.793C567.043 125.091 567.141 125.441 567.136 125.798C567.13 126.113 567.047 126.422 566.895 126.698C566.753 126.952 566.554 127.167 566.315 127.327L419.903 225.077C419.505 225.342 419.021 225.436 418.558 225.338C418.095 225.239 417.691 224.956 417.434 224.551L353.647 123.624C353.391 123.219 353.304 122.724 353.405 122.25C353.505 121.775 353.785 121.359 354.184 121.092L500.595 23.3417C500.994 23.0754 501.478 22.9811 501.942 23.0793C502.405 23.1776 502.81 23.4604 503.067 23.8657L566.854 124.793Z" fill="#3F3D56"/>
          <path id="Rectangle 99" d="M507 30.1447L357.451 129.783L357.837 130.392L507.386 30.7532L507 30.1447Z" fill="#3F3D56"/>
          <path id="Ellipse 88" d="M361.169 124.211C362.166 123.545 362.454 122.183 361.813 121.169C361.172 120.154 359.844 119.871 358.847 120.537C357.85 121.203 357.561 122.565 358.202 123.58C358.843 124.594 360.171 124.877 361.169 124.211Z" fill="#3F3D56"/>
          <path id="Ellipse 89" d="M366.338 120.767C367.335 120.101 367.624 118.739 366.983 117.724C366.342 116.71 365.014 116.427 364.017 117.093C363.019 117.759 362.731 119.121 363.372 120.135C364.013 121.15 365.341 121.433 366.338 120.767Z" fill="#3F3D56"/>
          <path id="Ellipse 90" d="M371.508 117.323C372.505 116.657 372.794 115.295 372.153 114.28C371.512 113.266 370.183 112.983 369.186 113.649C368.189 114.315 367.9 115.677 368.542 116.691C369.183 117.706 370.511 117.988 371.508 117.323Z" fill="#3F3D56"/>
          <g id="mail">
            <path id="Vector" d="M509.056 126.125C508.608 127.921 507.442 129.639 505.716 130.783L446.472 170.062C444.745 171.206 442.711 171.611 440.884 171.323L438.123 166.6L445.623 136.967L450.241 134.239L451.037 131.046L468.641 119.374L471.299 120.278L476.816 116.62L504.763 120.918L509.056 126.125Z" fill="#A6C9FF"/>
            <g id="Group">
              <path id="Vector_2" d="M509.057 126.125C508.609 127.921 507.443 129.638 505.716 130.783L476.094 150.422L459.545 125.405L468.642 119.374L471.3 120.278L476.817 116.62L504.764 120.918L509.057 126.125Z" fill="#7FB0F9"/>
              <path id="Vector_3" d="M447.143 130.138L416.882 125.475L412.483 128.392C412.033 130.199 412.282 132.116 413.338 133.713L436.324 168.459C437.38 170.056 439.046 171.034 440.884 171.324L450.241 134.239L447.143 130.138Z" fill="#98C1FF"/>
            </g>
            <path id="Vector_4" d="M480.657 83.1927L476.192 86.153L468.853 115.137L471.299 120.278L509.058 126.125C509.508 124.318 509.259 122.4 508.202 120.804L485.217 86.0575C484.161 84.4609 482.495 83.4828 480.657 83.1927Z" fill="#579AFF"/>
            <path id="Vector_5" d="M480.657 83.1939L469.492 127.53C468.846 130.124 467.209 132.32 465.061 133.744C462.913 135.168 460.254 135.82 457.616 135.404L412.484 128.392C412.932 126.595 414.098 124.878 415.825 123.733L475.068 84.455C476.795 83.3103 478.83 82.9054 480.657 83.1939Z" fill="#3284FF"/>
            <path id="Vector_6" d="M469.493 127.529C468.846 130.124 467.209 132.32 465.061 133.744L445.447 104.094L475.069 84.455C476.795 83.3102 478.83 82.9053 480.657 83.1938L469.493 127.529Z" fill="#1E77FD"/>
          </g>
        </g>
        <path id="Path 552" d="M229.521 120.961C229.947 121.16 230.357 121.395 230.746 121.662L269.683 104.618L271.072 94.0979L286.63 94L285.71 118.129L234.319 132.07C234.211 132.436 234.081 132.795 233.93 133.145C233.187 134.772 231.992 136.136 230.496 137.068C228.999 138 227.267 138.458 225.517 138.383C223.768 138.309 222.079 137.706 220.662 136.65C219.246 135.595 218.165 134.133 217.555 132.45C216.946 130.766 216.835 128.935 217.237 127.187C217.639 125.439 218.535 123.852 219.814 122.625C221.092 121.398 222.696 120.585 224.423 120.29C226.15 119.994 227.924 120.229 229.521 120.964V120.961Z" fill="#CAA0A6"/>
        <path id="Path 553" d="M286.918 342.546H276.275L271.212 300.443H286.919L286.918 342.546Z" fill="#CAA0A6"/>
        <path id="Path 554" d="M268.673 339.427H289.197V352.678H255.749C255.749 349.162 257.111 345.791 259.534 343.305C261.958 340.82 265.245 339.423 268.673 339.423V339.427Z" fill="#2F2E41"/>
        <path id="Path 555" d="M328.309 339.462L317.718 340.531L308.654 299.14L324.286 297.56L328.309 339.462Z" fill="#CAA0A6"/>
        <path id="Path 556" d="M309.851 338.198L330.278 336.134L331.544 349.325L298.257 352.688C297.921 349.189 298.954 345.697 301.129 342.98C303.303 340.262 306.441 338.542 309.852 338.198H309.851Z" fill="#2F2E41"/>
        <path id="Ellipse 84" d="M289.88 52.3914C301.656 52.3914 311.202 42.6007 311.202 30.5233C311.202 18.4459 301.656 8.65527 289.88 8.65527C278.105 8.65527 268.559 18.4459 268.559 30.5233C268.559 42.6007 278.105 52.3914 289.88 52.3914Z" fill="#CAA0A6"/>
        <path id="Path 557" d="M273.896 334.032C272.981 334.034 272.095 333.705 271.394 333.102C270.692 332.499 270.221 331.662 270.063 330.738C264.559 299.38 246.548 196.826 246.118 193.985C246.108 193.919 246.103 193.853 246.104 193.787V186.141C246.103 185.862 246.188 185.591 246.346 185.364L248.724 181.947C248.838 181.783 248.986 181.647 249.158 181.551C249.33 181.454 249.522 181.4 249.718 181.391C263.279 180.739 307.693 178.827 309.839 181.577C311.994 184.337 311.232 192.713 311.055 194.362L311.063 194.534L331.017 325.417C331.173 326.461 330.922 327.526 330.319 328.381C329.715 329.237 328.807 329.814 327.792 329.989L315.329 332.094C314.401 332.247 313.45 332.053 312.65 331.548C311.849 331.043 311.252 330.259 310.967 329.341C307.112 316.708 294.187 274.211 289.708 257.767C289.679 257.664 289.615 257.575 289.527 257.516C289.439 257.457 289.333 257.433 289.229 257.448C289.125 257.463 289.03 257.517 288.962 257.598C288.893 257.679 288.856 257.784 288.856 257.891C289.08 273.567 289.621 313.559 289.811 327.372L289.831 328.86C289.839 329.867 289.479 330.841 288.821 331.589C288.163 332.336 287.256 332.804 286.278 332.898L274.261 334.015C274.139 334.027 274.021 334.032 273.896 334.032Z" fill="#2F2E41"/>
        <path id="Path 99" d="M276.347 60.9906C272.627 63.2592 270.4 67.4278 269.122 71.6748C266.757 79.5287 265.333 87.649 264.882 95.8561L263.532 120.43L246.816 185.577C261.304 198.15 269.66 195.292 289.163 185.008C308.666 174.725 310.894 188.437 310.894 188.437L314.793 133.005L320.365 72.4326C319.114 70.8879 317.698 69.4919 316.144 68.2709C310.994 64.1629 305.003 61.3074 298.62 59.9193C292.238 58.5312 285.632 58.647 279.3 60.2578L276.347 60.9906Z" fill="white"/>
        <path id="Path 558" d="M270.919 137.068C271.369 137.24 271.803 137.449 272.221 137.691L310.72 117.925L311.359 107.218L327.24 106.095L328.091 130.502L276.642 147.953C276.222 149.803 275.263 151.477 273.893 152.754C272.523 154.03 270.806 154.849 268.971 155.1C267.136 155.352 265.27 155.024 263.621 154.161C261.972 153.298 260.618 151.941 259.739 150.269C258.861 148.598 258.501 146.692 258.704 144.805C258.908 142.918 259.667 141.139 260.881 139.705C262.094 138.271 263.704 137.251 265.497 136.779C267.29 136.306 269.182 136.406 270.918 137.063L270.919 137.068Z" fill="#CAA0A6"/>
        <path id="Path 101" d="M320.088 72.7049C329.56 76.1337 331.229 113.282 331.229 113.282C320.085 106.996 306.713 117.282 306.713 117.282C306.713 117.282 303.927 107.567 300.584 94.995C299.575 91.4587 299.454 87.7179 300.233 84.1209C301.013 80.5238 302.666 77.1875 305.041 74.4224C305.041 74.4224 310.615 69.2744 320.088 72.7049Z" fill="white"/>
        <path id="Path 102" d="M308.998 36.3071C306.342 34.1275 302.717 38.0878 302.717 38.0878L300.592 18.4723C300.592 18.4723 287.31 20.1044 278.808 17.9274C270.306 15.7505 268.978 25.8294 268.978 25.8294C268.54 21.7582 268.451 17.6554 268.713 13.5683C269.244 8.66417 276.151 3.75919 288.371 0.489799C300.591 -2.77959 306.967 11.3887 306.967 11.3887C315.469 15.747 311.654 38.4867 308.998 36.3071Z" fill="#E6C412"/>
        <g id="linkedinWindow">
          <path id="Path 561 2" d="M564.959 226.973H391.003C390.34 226.974 389.705 227.244 389.236 227.725C388.767 228.205 388.504 228.857 388.503 229.537V350.436C388.504 351.115 388.767 351.767 389.236 352.248C389.705 352.728 390.34 352.999 391.003 352.999H564.959C565.32 352.999 565.677 352.919 566.005 352.763C566.334 352.608 566.625 352.382 566.859 352.1C566.879 352.078 566.898 352.054 566.914 352.029C567.064 351.841 567.184 351.631 567.273 351.406C567.398 351.098 567.463 350.767 567.462 350.433V229.537C567.461 228.856 567.197 228.204 566.728 227.724C566.258 227.243 565.622 226.973 564.959 226.973ZM566.747 350.436C566.748 350.793 566.645 351.143 566.452 351.441C566.281 351.703 566.048 351.917 565.776 352.064C565.523 352.198 565.243 352.268 564.959 352.267H391.003C390.529 352.267 390.075 352.074 389.741 351.73C389.406 351.387 389.217 350.921 389.217 350.436V229.537C389.217 229.051 389.406 228.586 389.741 228.242C390.075 227.899 390.529 227.706 391.003 227.705H564.959C565.433 227.705 565.887 227.898 566.223 228.242C566.558 228.585 566.747 229.051 566.747 229.537V350.436Z" fill="#3F3D56"/>
          <path id="Rectangle 99 2" d="M567.101 237.246H388.859V237.979H567.101V237.246Z" fill="#3F3D56"/>
          <path id="Ellipse 88 2" d="M394.932 234.667C396.116 234.667 397.075 233.683 397.075 232.469C397.075 231.255 396.116 230.27 394.932 230.27C393.748 230.27 392.788 231.255 392.788 232.469C392.788 233.683 393.748 234.667 394.932 234.667Z" fill="#3F3D56"/>
          <path id="Ellipse 89 2" d="M401.094 234.667C402.277 234.667 403.237 233.683 403.237 232.469C403.237 231.255 402.277 230.27 401.094 230.27C399.91 230.27 398.95 231.255 398.95 232.469C398.95 233.683 399.91 234.667 401.094 234.667Z" fill="#3F3D56"/>
          <path id="Ellipse 90 2" d="M407.255 234.667C408.439 234.667 409.399 233.683 409.399 232.469C409.399 231.255 408.439 230.27 407.255 230.27C406.072 230.27 405.112 231.255 405.112 232.469C405.112 233.683 406.072 234.667 407.255 234.667Z" fill="#3F3D56"/>
        </g>
      </g>
      <g id="githubWindow">
        <path id="Path 561 3" d="M212.163 105.885H3.4584C2.66337 105.886 1.90111 106.21 1.33894 106.786C0.776775 107.363 0.460651 108.145 0.459961 108.96V254.009C0.460651 254.825 0.776775 255.606 1.33894 256.183C1.90111 256.76 2.66337 257.084 3.4584 257.085H212.163C212.597 257.085 213.025 256.988 213.419 256.802C213.812 256.615 214.162 256.344 214.443 256.005C214.467 255.979 214.488 255.951 214.508 255.921C214.689 255.697 214.835 255.446 214.942 255.177C215.093 254.807 215.17 254.41 215.169 254.009V108.96C215.168 108.556 215.09 108.156 214.939 107.782C214.788 107.409 214.566 107.07 214.287 106.784C214.008 106.498 213.677 106.272 213.312 106.118C212.948 105.963 212.558 105.884 212.163 105.885ZM214.309 254.009C214.31 254.438 214.186 254.858 213.955 255.216C213.749 255.53 213.47 255.788 213.143 255.964C212.84 256.124 212.504 256.207 212.163 256.207H3.4584C2.89061 256.206 2.3463 255.974 1.94481 255.563C1.54333 255.151 1.31747 254.592 1.31678 254.01V108.96C1.31747 108.378 1.54333 107.82 1.94481 107.408C2.3463 106.996 2.89061 106.764 3.4584 106.764H212.163C212.732 106.764 213.277 106.995 213.68 107.407C214.082 107.819 214.309 108.378 214.309 108.961V254.009Z" fill="#3F3D56"/>
        <path id="Rectangle 99 3" d="M214.735 118.209H0.887207V119.088H214.735V118.209Z" fill="#3F3D56"/>
        <path id="Ellipse 88 3" d="M8.1724 115.115C9.59251 115.115 10.7437 113.935 10.7437 112.478C10.7437 111.022 9.59251 109.841 8.1724 109.841C6.7523 109.841 5.60107 111.022 5.60107 112.478C5.60107 113.935 6.7523 115.115 8.1724 115.115Z" fill="#3F3D56"/>
        <path id="Ellipse 89 3" d="M15.5651 115.115C16.9852 115.115 18.1364 113.935 18.1364 112.478C18.1364 111.022 16.9852 109.841 15.5651 109.841C14.145 109.841 12.9937 111.022 12.9937 112.478C12.9937 113.935 14.145 115.115 15.5651 115.115Z" fill="#3F3D56"/>
        <path id="Ellipse 90 3" d="M22.9576 115.115C24.3777 115.115 25.5289 113.935 25.5289 112.478C25.5289 111.022 24.3777 109.841 22.9576 109.841C21.5375 109.841 20.3862 111.022 20.3862 112.478C20.3862 113.935 21.5375 115.115 22.9576 115.115Z" fill="#3F3D56"/>
      </g>
    </g>
  </g>
  <defs>
    <clipPath id="clip0">
      <rect width="86.2414" height="55.5478" fill="white" transform="matrix(0.83346 -0.55258 0.551726 0.834025 409.507 127.922)"/>
    </clipPath>
  </defs>
</svg>
