<svg width="1026" height="721" viewBox="0 0 1026 721" fill="none" xmlns="http://www.w3.org/2000/svg">
<g clip-path="url(#clip0)">
<path d="M521.811 720.713C799.991 720.713 1025.5 706.567 1025.5 689.117C1025.5 671.666 799.991 657.52 521.811 657.52C243.631 657.52 18.1216 671.666 18.1216 689.117C18.1216 706.567 243.631 720.713 521.811 720.713Z" fill="#3F3D56"/>
<path d="M38.6911 658.139C50.2411 679.559 74.7541 688.754 74.7541 688.754C74.7541 688.754 80.5411 663.22 68.9911 641.8C57.4411 620.381 32.9281 611.185 32.9281 611.185C32.9281 611.185 27.1412 636.719 38.6911 658.139Z" fill="#3F3D56"/>
<path d="M46.6298 651.092C67.4822 663.637 75.5131 688.556 75.5131 688.556C75.5131 688.556 49.7356 693.134 28.8833 680.589C8.03091 668.043 0 643.125 0 643.125C0 643.125 25.7775 638.546 46.6298 651.092Z" fill="#1E77FD"/>
<path d="M927.035 88.343H101.717V114.6H927.035V88.343Z" fill="#F2F2F2"/>
<path d="M927.035 681.247H101.717V504.122L192.831 425.792L927.035 370.122V681.247Z" fill="#1E77FD"/>
<path d="M123.803 107.88C127.556 107.88 130.598 104.838 130.598 101.085C130.598 97.3315 127.556 94.2891 123.803 94.2891C120.05 94.2891 117.007 97.3315 117.007 101.085C117.007 104.838 120.05 107.88 123.803 107.88Z" fill="#1E77FD"/>
<path d="M145.888 107.88C149.641 107.88 152.683 104.838 152.683 101.085C152.683 97.3315 149.641 94.2891 145.888 94.2891C142.135 94.2891 139.092 97.3315 139.092 101.085C139.092 104.838 142.135 107.88 145.888 107.88Z" fill="#1E77FD"/>
<path d="M167.973 107.88C171.726 107.88 174.769 104.838 174.769 101.085C174.769 97.3315 171.726 94.2891 167.973 94.2891C164.22 94.2891 161.178 97.3315 161.178 101.085C161.178 104.838 164.22 107.88 167.973 107.88Z" fill="#1E77FD"/>
<path d="M926.535 368.841L102.217 503.127V115.1H926.535V368.841Z" fill="white" stroke="#F2F2F2"/>
<path d="M834.639 560.28C812.359 556.505 790.932 553.263 770.358 550.555L778.492 534.785C775.749 533.833 763.7 542.863 763.7 542.863L774.373 497.089C760.58 498.752 753.567 545.491 753.567 545.491L738.156 529.689L745.617 547.455C682.649 540.039 628.268 537.29 582.527 537.191L589.488 523.694C586.746 522.741 574.696 531.772 574.696 531.772L585.37 485.997C571.576 487.661 564.563 534.399 564.563 534.399L549.153 518.597L557.055 537.414C525.715 537.931 494.423 540.057 463.301 543.782C470.342 522.756 494.261 502.759 494.261 502.759C475.994 508.192 466.413 517.296 461.406 525.783C460.958 482.4 468.172 439.278 482.715 398.403C482.715 398.403 444.958 480.564 449.776 535.715L450.352 545.508C418.343 550.091 402.25 554.86 402.25 554.86L834.639 560.28Z" fill="#3F3D56"/>
<path d="M391.749 263.984H161.279V273.277H391.749V263.984Z" fill="#3F3D56"/>
<path d="M391.749 284.429H161.279V293.722H391.749V284.429Z" fill="#3F3D56"/>
<path d="M239.341 304.874H161.279V314.167H239.341V304.874Z" fill="#3F3D56"/>
<path d="M773.315 217.222C819.695 217.222 857.294 179.623 857.294 133.243C857.294 86.8627 819.695 49.2639 773.315 49.2639C726.934 49.2639 689.336 86.8627 689.336 133.243C689.336 179.623 726.934 217.222 773.315 217.222Z" fill="#FF6584"/>
<path d="M831.769 234.403C848.303 347.234 786.998 396.455 704.262 408.578C702.34 408.86 700.424 409.119 698.514 409.355C694.668 409.834 690.848 410.215 687.054 410.499C611.607 416.153 547.518 383.241 532.142 278.308C516.23 169.716 634.937 12.3368 643.861 0.678711C643.87 0.677381 643.87 0.677382 643.878 0.666832C644.217 0.222712 644.391 0 644.391 0C644.391 0 815.237 121.581 831.769 234.403Z" fill="#1E77FD"/>
<path d="M696.28 392.118L739.854 307.532L697.373 400.543L698.514 409.355C694.668 409.834 690.848 410.215 687.054 410.499L676.417 296.756L676.243 295.889L676.32 295.709L675.318 284.961L607.769 207.857L674.313 276.946L674.782 279.188L666.745 193.251L606.705 112.145L665.128 178.178L643.861 0.678764L643.793 0.0876465L643.878 0.666885L663.539 140.222L702.36 78.066L665.096 152.26L675.045 228.806L708.139 149.099L676.515 240.059L682.048 282.622L730.711 171.292L683.97 297.472L696.28 392.118Z" fill="#3F3D56"/>
</g>
<defs>
<clipPath id="clip0">
<rect width="1025.5" height="720.713" fill="white"/>
</clipPath>
</defs>
</svg>
